<svg xmlns="http://www.w3.org/2000/svg" x="0px" y="0px" width="100" height="100" viewBox="0,0,256,256">
<g fill="none" fill-rule="nonzero" stroke="none" stroke-width="1" stroke-linecap="butt" stroke-linejoin="miter" stroke-miterlimit="10" stroke-dasharray="" stroke-dashoffset="0" font-family="none" font-weight="none" font-size="none" text-anchor="none" style="mix-blend-mode: normal"><g transform="scale(8,8)"><path d="M4,22v-12h2v-2h2v-2h2v-2h12v2h2v2h2v2h2v12h-2v2h-2v2h-2v2h-12v-2h-2v-2h-2v-2z" fill="#000000"></path><path d="M23,12h-2v-4h-2v2h-6v-2h-2v4h-2v6h2v2h2v2h-3v2h3v4h6v-8h2v-2h2z" fill="#ffffff"></path><rect x="8" y="20" width="2" height="2" fill="#ffffff"></rect></g></g>
</svg>