<svg xmlns="http://www.w3.org/2000/svg" x="0px" y="0px" width="100" height="100" viewBox="0 0 32 32">
<path fill="#f18f06" fill-rule="evenodd" d="M8.997,28.997h-2v-2h-2	v-2l-1-1v-9h24v9l-1,1v2h-2v2h-2h-4l-1-1h-8L8.997,28.997z" clip-rule="evenodd"></path><path fill="#f18f06" fill-rule="evenodd" d="M3.997,19.997v-7h22v9	l1,1v4h-2v2h-2v-2l-1-1l2-2l-1-1h-2v-2h-2l-1-1h-4l-2-2l-1,1h-2v2h-2l-2,2v2h-2v-4L3.997,19.997z" clip-rule="evenodd"></path><path fill="#e41e2f" fill-rule="evenodd" d="M2.997,14.997v6h2l2-4h2	v-2h10l2,4h2v2h2l2,2v2h2v-6l-1-1v-9h-24v5L2.997,14.997z" clip-rule="evenodd"></path><path fill="#e41e2f" fill-rule="evenodd" d="M2.997,12.997v2h2l2-2h2	v-2h4l6,2l1,1l1-1h2v2h3l1,4h2v-2l-3-9h-22L2.997,12.997z" clip-rule="evenodd"></path><path fill="#085295" fill-rule="evenodd" d="M2.997,12.997v-6h2v-2h2	v-2h18v2h2v2h2v10h-2l-2-4h-2v-2l-1-1l-1,1h-2v-2h-10v2h-2l-2,2H2.997z" clip-rule="evenodd"></path><path fill="#f18f06" fill-rule="evenodd" d="M8.997,28.997v-2l2-2v-2	h6v2l2,2v2H8.997z" clip-rule="evenodd"></path><path fill="#e6e5e5" fill-rule="evenodd" d="M8.996,4.999v1.999	h14.001V4.999H8.996z" clip-rule="evenodd"></path><path fill="#e6e5e5" fill-rule="evenodd" d="M8.997,24.999v1.999	h14.001v-1.999H8.997z" clip-rule="evenodd"></path><path fill="#e6e5e5" fill-rule="evenodd" d="M26.997,8.997h-1.999	v14.001h1.999V8.997z" clip-rule="evenodd"></path><path fill="#e6e5e5" fill-rule="evenodd" d="M6.997,8.999H4.999V23	h1.999V8.999z" clip-rule="evenodd"></path><path fill="#e6e5e5" fill-rule="evenodd" d="M8.997,6.996H6.999	v2.001h1.999V6.996z" clip-rule="evenodd"></path><path fill="#e6e5e5" fill-rule="evenodd" d="M24.997,6.997h-1.999	v2.001h1.999V6.997z" clip-rule="evenodd"></path><path fill="#e6e5e5" fill-rule="evenodd" d="M24.997,22.996h-1.999	v2.001h1.999V22.996z" clip-rule="evenodd"></path><path fill="#e6e5e5" fill-rule="evenodd" d="M8.996,22.996H6.997	v2.001h1.999V22.996z" clip-rule="evenodd"></path><path fill="#e6e5e5" fill-rule="evenodd" d="M22.997,8.997h-1.999	v2.001h1.999V8.997z" clip-rule="evenodd"></path><path fill="#e6e5e5" fill-rule="evenodd" d="M19,10.996h-6.001v2.001	H19V10.996z" clip-rule="evenodd"></path><path fill="#e6e5e5" fill-rule="evenodd" d="M18.999,18.996h-6.001	v2.001h6.001V18.996z" clip-rule="evenodd"></path><path fill="#e6e5e5" fill-rule="evenodd" d="M21,18.999v-6.001	h-2.001v6.001H21z" clip-rule="evenodd"></path><path fill="#e6e5e5" fill-rule="evenodd" d="M13,18.997v-6.001	h-2.001v6.001H13z" clip-rule="evenodd"></path>
</svg>